<svg width="216" height="216" viewBox="0 0 216 216" fill="none" xmlns="http://www.w3.org/2000/svg">
<circle cx="108" cy="108" r="98" stroke="white" stroke-width="20"/>
<path d="M110.387 73.982V142.065H94.5764V91.7508L79 96.2866V84.316L108.933 73.982H110.387Z" fill="white"/>
<path d="M168.949 123.314C168.949 127.647 167.917 131.279 165.853 134.209C163.819 137.139 161.004 139.337 157.408 140.802C153.842 142.267 149.776 143 145.209 143C140.674 143 136.592 142.267 132.964 140.802C129.367 139.337 126.521 137.139 124.425 134.209C122.329 131.279 121.282 127.647 121.282 123.314C121.282 120.352 121.876 117.703 123.064 115.365C124.284 112.996 125.973 110.985 128.131 109.333C130.29 107.68 132.807 106.418 135.685 105.545C138.594 104.672 141.737 104.236 145.115 104.236C149.682 104.236 153.764 105.015 157.361 106.574C160.958 108.101 163.788 110.283 165.853 113.12C167.917 115.957 168.949 119.355 168.949 123.314ZM153.044 122.051C153.044 120.181 152.716 118.607 152.059 117.329C151.402 116.019 150.479 115.022 149.291 114.336C148.102 113.65 146.71 113.307 145.115 113.307C143.551 113.307 142.16 113.65 140.94 114.336C139.751 115.022 138.813 116.019 138.125 117.329C137.468 118.607 137.139 120.181 137.139 122.051C137.139 123.859 137.483 125.434 138.172 126.774C138.86 128.084 139.798 129.097 140.987 129.814C142.206 130.499 143.614 130.842 145.209 130.842C146.804 130.842 148.181 130.499 149.338 129.814C150.526 129.097 151.433 128.084 152.059 126.774C152.716 125.434 153.044 123.859 153.044 122.051ZM167.542 92.1717C167.542 95.7255 166.588 98.8428 164.68 101.524C162.803 104.173 160.176 106.246 156.798 107.743C153.451 109.208 149.588 109.941 145.209 109.941C140.861 109.941 136.983 109.208 133.574 107.743C130.196 106.246 127.537 104.173 125.598 101.524C123.69 98.8428 122.736 95.7255 122.736 92.1717C122.736 87.9944 123.69 84.4874 125.598 81.6506C127.537 78.8139 130.196 76.6629 133.574 75.1977C136.952 73.7326 140.799 73 145.115 73C149.494 73 153.373 73.7326 156.751 75.1977C160.129 76.6629 162.772 78.8139 164.68 81.6506C166.588 84.4874 167.542 87.9944 167.542 92.1717ZM151.731 93.0134C151.731 91.3923 151.48 90.0051 150.98 88.8517C150.479 87.6671 149.744 86.7631 148.775 86.1396C147.805 85.485 146.585 85.1576 145.115 85.1576C143.708 85.1576 142.519 85.4694 141.55 86.0929C140.58 86.7163 139.845 87.6204 139.345 88.8049C138.844 89.9584 138.594 91.3612 138.594 93.0134C138.594 94.6344 138.844 96.0528 139.345 97.2685C139.845 98.4843 140.58 99.4351 141.55 100.121C142.55 100.807 143.77 101.15 145.209 101.15C146.679 101.15 147.883 100.807 148.822 100.121C149.791 99.4351 150.511 98.4843 150.98 97.2685C151.48 96.0528 151.731 94.6344 151.731 93.0134Z" fill="white"/>
<path d="M72 106.679V114.041H47V106.679H72ZM63.483 97V124H55.5922V97H63.483Z" fill="white"/>
</svg>
