<svg width="542" height="270" viewBox="0 0 542 270" fill="none" xmlns="http://www.w3.org/2000/svg">
<g clip-path="url(#clip0_40_40)">
<path d="M132.26 65.51C132 65.248 131.719 65.0072 131.42 64.79C131.717 65.0087 131.998 65.2494 132.26 65.51Z" fill="white"/>
<path d="M122.17 65.47C121.924 65.7159 121.697 65.98 121.49 66.26C121.698 65.9812 121.925 65.7172 122.17 65.47Z" fill="white"/>
<path d="M365.65 67.15C365.807 67.1521 365.963 67.1826 366.11 67.24C366.276 67.3075 366.426 67.4098 366.55 67.54L369.11 70.24C368.011 71.6895 366.558 72.8327 364.89 73.56C362.99 74.3473 360.946 74.7288 358.89 74.68C356.939 74.7121 355.003 74.3446 353.2 73.6C351.579 72.9164 350.123 71.8934 348.93 70.6C347.739 69.2933 346.824 67.7592 346.24 66.09C345.601 64.2687 345.282 62.3502 345.3 60.42C345.273 58.4644 345.613 56.521 346.3 54.69C346.937 53.0132 347.906 51.4825 349.15 50.19C350.396 48.9115 351.894 47.9068 353.55 47.24C355.343 46.5235 357.259 46.1667 359.19 46.19C360.197 46.1827 361.202 46.2765 362.19 46.47C363.075 46.6416 363.942 46.896 364.78 47.23C366.282 47.8372 367.643 48.7459 368.78 49.9L366.6 52.83C366.455 53.0138 366.287 53.1785 366.1 53.32C365.865 53.4794 365.584 53.5568 365.3 53.54C365.074 53.5419 364.852 53.4905 364.65 53.39C364.426 53.2718 364.209 53.1416 364 53L363.25 52.52C362.933 52.3286 362.598 52.1679 362.25 52.04C361.821 51.8791 361.38 51.7553 360.93 51.67C360.346 51.5617 359.753 51.5115 359.16 51.52C358.149 51.506 357.147 51.7071 356.22 52.11C355.361 52.5151 354.603 53.106 354 53.84C353.323 54.6616 352.816 55.6101 352.51 56.63C352.14 57.8553 351.961 59.1302 351.98 60.41C351.957 61.7036 352.153 62.9917 352.56 64.22C352.903 65.2476 353.443 66.1987 354.15 67.02C354.794 67.7604 355.593 68.3509 356.49 68.75C357.394 69.1469 358.372 69.348 359.36 69.34C359.898 69.3414 360.436 69.3113 360.97 69.25C361.431 69.1967 361.887 69.0996 362.33 68.96C362.747 68.8277 363.146 68.6465 363.52 68.42C363.923 68.1731 364.301 67.8885 364.65 67.57C364.802 67.4417 364.97 67.3341 365.15 67.25C365.308 67.184 365.478 67.15 365.65 67.15ZM394.74 74.36H388.89C388.426 74.3956 387.962 74.3 387.55 74.0843C387.138 73.8686 386.795 73.5414 386.56 73.14L381.92 65C381.745 64.6645 381.473 64.3896 381.139 64.2112C380.806 64.0328 380.426 63.9592 380.05 64H378.4V74.36H371.94V46.49H381C382.74 46.4544 384.477 46.6631 386.16 47.11C387.425 47.4455 388.609 48.034 389.64 48.84C390.519 49.5289 391.207 50.4307 391.64 51.46C392.055 52.5067 392.262 53.6241 392.25 54.75C392.256 55.6164 392.135 56.4789 391.89 57.31C391.652 58.1047 391.291 58.8572 390.82 59.54C390.314 60.2422 389.699 60.8599 389 61.37C388.269 61.9254 387.46 62.3702 386.6 62.69C387.028 62.9103 387.428 63.1824 387.79 63.5C388.174 63.8399 388.51 64.2301 388.79 64.66L394.74 74.36ZM381 59.59C381.763 59.61 382.524 59.4984 383.25 59.26C383.819 59.0661 384.338 58.7485 384.77 58.33C385.161 57.9403 385.456 57.4642 385.63 56.94C385.813 56.3887 385.904 55.811 385.9 55.23C385.928 54.6922 385.835 54.1551 385.627 53.6583C385.419 53.1615 385.102 52.7178 384.7 52.36C383.624 51.5995 382.313 51.2451 381 51.36H378.4V59.62L381 59.59ZM409 63.76V74.36H402.54V63.76L392.44 46.49H398.14C398.615 46.4625 399.085 46.6003 399.47 46.88C399.805 47.1546 400.081 47.4949 400.28 47.88L404.17 56C404.503 56.6667 404.803 57.2633 405.07 57.79C405.337 58.3167 405.573 58.8633 405.78 59.43C405.973 58.8833 406.193 58.3333 406.44 57.78C406.687 57.2267 406.977 56.6367 407.31 56.01L411.21 47.9C411.306 47.7245 411.416 47.5573 411.54 47.4C411.67 47.2314 411.821 47.0801 411.99 46.95C412.169 46.8104 412.368 46.6991 412.58 46.62C412.817 46.5359 413.068 46.4953 413.32 46.5H419L409 63.76ZM431.06 46.49C432.773 46.4546 434.481 46.6909 436.12 47.19C437.4 47.5835 438.585 48.2371 439.6 49.11C440.486 49.9011 441.172 50.8917 441.6 52C442.04 53.1486 442.261 54.3698 442.25 55.6C442.265 56.9071 442.038 58.2056 441.58 59.43C441.16 60.5744 440.475 61.6026 439.58 62.43C438.565 63.3131 437.376 63.974 436.09 64.37C434.471 64.8665 432.783 65.1027 431.09 65.07H427.7V74.38H421.24V46.49H431.06ZM431.06 60.17C431.691 60.2752 432.338 60.2311 432.949 60.0414C433.561 59.8517 434.119 59.5215 434.58 59.0773C435.04 58.6332 435.391 58.0873 435.602 57.4835C435.814 56.8797 435.882 56.2346 435.8 55.6C435.807 55.0074 435.709 54.4182 435.51 53.86C435.327 53.3493 435.03 52.8874 434.64 52.51C434.22 52.1152 433.718 51.8181 433.17 51.64C432.488 51.4216 431.776 51.3168 431.06 51.33H427.7V60.17H431.06ZM465.59 51.62H457.75V74.36H451.29V51.62H443.45V46.49H465.6L465.59 51.62ZM495.56 60.41C495.589 62.3301 495.25 64.2379 494.56 66.03C493.896 67.7354 492.888 69.2854 491.597 70.5829C490.306 71.8804 488.762 72.8973 487.06 73.57C483.244 75.0241 479.026 75.0241 475.21 73.57C473.493 72.9015 471.933 71.8834 470.63 70.5803C469.327 69.2771 468.308 67.7174 467.64 66C466.249 62.3789 466.249 58.3711 467.64 54.75C468.307 53.0621 469.311 51.5277 470.59 50.24C471.898 48.9403 473.456 47.9197 475.17 47.24C477.057 46.4942 479.071 46.124 481.1 46.15C483.126 46.1235 485.138 46.4974 487.02 47.25C488.726 47.933 490.277 48.9534 491.58 50.25C492.854 51.5395 493.854 53.0736 494.52 54.76C495.229 56.5582 495.583 58.4771 495.56 60.41ZM488.94 60.41C488.955 59.1494 488.773 57.8942 488.4 56.69C488.083 55.6614 487.559 54.7085 486.86 53.89C486.186 53.1219 485.344 52.5196 484.4 52.13C483.349 51.707 482.223 51.4996 481.09 51.52C479.947 51.4991 478.812 51.7065 477.75 52.13C476.802 52.5176 475.956 53.1201 475.28 53.89C474.581 54.7084 474.057 55.6613 473.74 56.69C473.026 59.1254 473.026 61.7146 473.74 64.15C474.056 65.1788 474.581 66.1318 475.28 66.95C475.955 67.7187 476.801 68.3182 477.75 68.7C478.813 69.117 479.948 69.3209 481.09 69.3C482.222 69.3204 483.347 69.1164 484.4 68.7C485.34 68.3306 486.182 67.7488 486.86 67C487.559 66.1815 488.083 65.2286 488.4 64.2C488.779 62.9732 488.962 61.6939 488.94 60.41ZM306.66 106.37H316.57V118.13C315.195 119.151 313.652 119.923 312.01 120.41C310.366 120.887 308.662 121.126 306.95 121.12C304.815 121.147 302.693 120.781 300.69 120.04C298.897 119.37 297.255 118.35 295.86 117.04C294.521 115.772 293.464 114.235 292.76 112.53C292.022 110.732 291.651 108.804 291.67 106.86C291.637 104.904 291.977 102.959 292.67 101.13C293.341 99.435 294.363 97.9014 295.67 96.63C296.999 95.3358 298.583 94.3313 300.32 93.68C302.268 92.9564 304.332 92.6004 306.41 92.63C307.507 92.6254 308.601 92.7225 309.68 92.92C310.642 93.0939 311.586 93.355 312.5 93.7C313.325 94.0158 314.116 94.4145 314.86 94.89C315.543 95.3246 316.182 95.8236 316.77 96.38L314.9 99.23C314.775 99.4361 314.609 99.6149 314.413 99.7558C314.217 99.8966 313.995 99.9967 313.76 100.05C313.5 100.095 313.233 100.088 312.976 100.03C312.719 99.9716 312.475 99.8629 312.26 99.71C311.753 99.4033 311.273 99.14 310.82 98.92C310.373 98.6978 309.908 98.5138 309.43 98.37C308.943 98.2255 308.444 98.1218 307.94 98.06C307.356 97.9915 306.768 97.9581 306.18 97.96C305.057 97.9414 303.943 98.1595 302.91 98.6C301.96 99.0124 301.112 99.6306 300.43 100.41C299.723 101.229 299.186 102.181 298.85 103.21C298.469 104.385 298.283 105.615 298.3 106.85C298.277 108.189 298.483 109.521 298.91 110.79C299.276 111.871 299.866 112.862 300.64 113.7C301.388 114.494 302.304 115.112 303.32 115.51C304.42 115.935 305.591 116.145 306.77 116.13C307.48 116.137 308.188 116.06 308.88 115.9C309.512 115.748 310.131 115.544 310.73 115.29V111.06H308C307.82 111.076 307.638 111.055 307.466 110.998C307.294 110.941 307.135 110.85 307 110.73C306.888 110.625 306.8 110.498 306.742 110.357C306.683 110.215 306.655 110.063 306.66 109.91V106.37ZM345.49 120.81H340.49C340.006 120.834 339.528 120.697 339.13 120.42C338.788 120.16 338.519 119.815 338.35 119.42L336.7 114.56H326.1L324.46 119.42C324.303 119.817 324.04 120.163 323.7 120.42C323.313 120.715 322.836 120.867 322.35 120.85H317.35L328.14 92.98H334.76L345.49 120.81ZM335.22 110.16L332.64 102.53C332.447 102.043 332.243 101.473 332.03 100.82C331.817 100.167 331.6 99.4567 331.38 98.69C331.187 99.47 330.983 100.19 330.77 100.85C330.557 101.51 330.353 102.083 330.16 102.57L327.6 110.16H335.22ZM379 92.94V120.81H373.3V103.6C373.3 103.17 373.35 102.73 373.41 102.28L366.01 116.61C365.801 117.025 365.479 117.372 365.08 117.61C364.676 117.842 364.216 117.959 363.75 117.95H362.87C362.404 117.959 361.944 117.842 361.54 117.61C361.141 117.372 360.818 117.025 360.61 116.61L353.21 102.25C353.25 102.71 353.283 103.16 353.31 103.6C353.337 104.04 353.337 104.443 353.31 104.81V120.81H347.61V92.94H353.28C353.471 92.9484 353.66 92.9855 353.84 93.05C354.01 93.1165 354.163 93.2188 354.29 93.35C354.447 93.5162 354.579 93.705 354.68 93.91L361.85 108.04C362.103 108.527 362.35 109.03 362.59 109.55C362.83 110.07 363.057 110.607 363.27 111.16C363.49 110.6 363.717 110.053 363.95 109.52C364.183 108.987 364.433 108.477 364.7 107.99L371.85 93.91C371.951 93.705 372.083 93.5162 372.24 93.35C372.367 93.2191 372.52 93.1168 372.69 93.05C372.87 92.9855 373.059 92.9484 373.25 92.94H373.99H379ZM394.66 92.94C396.316 92.9104 397.97 93.0919 399.58 93.48C400.772 93.7653 401.897 94.2817 402.89 95C403.714 95.609 404.359 96.4273 404.76 97.37C405.16 98.3608 405.357 99.4217 405.34 100.49C405.342 101.104 405.251 101.714 405.07 102.3C404.889 102.889 404.604 103.441 404.23 103.93C403.815 104.467 403.319 104.936 402.76 105.32C402.091 105.776 401.365 106.143 400.6 106.41C402.145 106.699 403.565 107.452 404.67 108.57C405.578 109.646 406.049 111.023 405.99 112.43C405.998 113.57 405.763 114.698 405.3 115.74C404.84 116.767 404.156 117.679 403.3 118.41C402.334 119.213 401.219 119.817 400.02 120.19C398.577 120.638 397.071 120.854 395.56 120.83H384.41V92.94H394.66ZM390.87 97.78V104.67H394.24C394.886 104.677 395.532 104.627 396.17 104.52C396.687 104.437 397.183 104.254 397.63 103.98C398.031 103.726 398.351 103.361 398.55 102.93C398.773 102.399 398.879 101.826 398.86 101.25C398.875 100.69 398.79 100.131 398.61 99.6C398.458 99.1813 398.191 98.814 397.84 98.54C397.452 98.254 397.004 98.0592 396.53 97.97C395.911 97.8476 395.281 97.7906 394.65 97.8L390.87 97.78ZM395.42 115.93C396.131 115.951 396.84 115.839 397.51 115.6C397.993 115.422 398.428 115.135 398.78 114.76C399.08 114.426 399.297 114.025 399.41 113.59C399.524 113.159 399.581 112.716 399.58 112.27C399.586 111.802 399.519 111.337 399.38 110.89C399.245 110.5 399.006 110.155 398.69 109.89C398.312 109.582 397.872 109.361 397.4 109.24C396.747 109.074 396.074 108.997 395.4 109.01H390.89V115.95L395.42 115.93ZM426.82 115.64V120.8H410V92.94H416.46V115.64H426.82ZM436.61 120.81H430.11V92.94H436.61V120.81ZM466.33 92.94V120.81H463C462.571 120.823 462.144 120.741 461.75 120.57C461.361 120.368 461.02 120.085 460.75 119.74L447.61 103.12C447.663 103.62 447.7 104.1 447.72 104.56C447.74 105.02 447.74 105.457 447.72 105.87V120.81H442V92.94H445.41C445.646 92.9247 445.884 92.9247 446.12 92.94C446.299 92.9603 446.475 93.0075 446.64 93.08C446.801 93.1568 446.95 93.258 447.08 93.38C447.252 93.5418 447.412 93.7155 447.56 93.9L460.82 110.64C460.753 110.107 460.71 109.587 460.69 109.08C460.67 108.573 460.67 108.1 460.69 107.66V92.94H466.33ZM485.12 106.37H495V118.13C493.625 119.151 492.082 119.923 490.44 120.41C488.796 120.887 487.092 121.126 485.38 121.12C483.245 121.147 481.123 120.781 479.12 120.04C477.327 119.37 475.685 118.35 474.29 117.04C472.95 115.772 471.894 114.235 471.19 112.53C470.452 110.732 470.081 108.804 470.1 106.86C470.067 104.904 470.406 102.959 471.1 101.13C471.77 99.4347 472.793 97.901 474.1 96.63C475.429 95.3353 477.012 94.3308 478.75 93.68C480.698 92.9564 482.762 92.6004 484.84 92.63C485.937 92.6253 487.031 92.7224 488.11 92.92C489.072 93.094 490.016 93.355 490.93 93.7C491.755 94.0154 492.546 94.4142 493.29 94.89C493.973 95.3247 494.612 95.8236 495.2 96.38L493.33 99.23C493.205 99.4361 493.039 99.6149 492.843 99.7558C492.647 99.8966 492.425 99.9967 492.19 100.05C491.93 100.095 491.663 100.088 491.406 100.03C491.149 99.9716 490.905 99.8629 490.69 99.71C490.183 99.4033 489.703 99.14 489.25 98.92C488.803 98.698 488.338 98.5141 487.86 98.37C487.373 98.2254 486.874 98.1217 486.37 98.06C485.786 97.9915 485.198 97.9581 484.61 97.96C483.487 97.9414 482.373 98.1595 481.34 98.6C480.39 99.0124 479.542 99.6306 478.86 100.41C478.153 101.23 477.616 102.181 477.28 103.21C476.899 104.385 476.713 105.615 476.73 106.85C476.707 108.189 476.913 109.521 477.34 110.79C477.706 111.871 478.296 112.862 479.07 113.7C479.819 114.494 480.734 115.112 481.75 115.51C482.85 115.935 484.021 116.145 485.2 116.13C485.91 116.137 486.618 116.06 487.31 115.9C487.942 115.748 488.561 115.544 489.16 115.29V111.06H486.41C486.23 111.076 486.048 111.055 485.876 110.998C485.704 110.941 485.545 110.85 485.41 110.73C485.298 110.625 485.21 110.498 485.152 110.357C485.093 110.215 485.065 110.063 485.07 109.91L485.12 106.37ZM246.2 144.36V151.42H255.72V156.42H246.2V167.27H239.7V139.39H257.64V144.39L246.2 144.36ZM288.47 153.32C288.499 155.24 288.16 157.148 287.47 158.94C286.806 160.645 285.798 162.195 284.507 163.493C283.216 164.79 281.672 165.807 279.97 166.48C276.154 167.934 271.936 167.934 268.12 166.48C266.413 165.81 264.863 164.795 263.567 163.497C262.271 162.2 261.257 160.648 260.59 158.94C259.199 155.319 259.199 151.311 260.59 147.69C261.257 146.002 262.261 144.468 263.54 143.18C264.848 141.88 266.406 140.86 268.12 140.18C270.007 139.434 272.021 139.064 274.05 139.09C276.076 139.064 278.088 139.437 279.97 140.19C281.676 140.873 283.227 141.893 284.53 143.19C285.804 144.479 286.804 146.014 287.47 147.7C288.162 149.492 288.501 151.4 288.47 153.32ZM281.85 153.32C281.865 152.059 281.683 150.804 281.31 149.6C280.993 148.571 280.469 147.619 279.77 146.8C279.096 146.032 278.254 145.43 277.31 145.04C276.259 144.617 275.133 144.41 274 144.43C272.857 144.409 271.722 144.616 270.66 145.04C269.712 145.428 268.866 146.03 268.19 146.8C267.491 147.618 266.967 148.571 266.65 149.6C265.936 152.035 265.936 154.625 266.65 157.06C266.966 158.089 267.491 159.042 268.19 159.86C268.865 160.629 269.711 161.228 270.66 161.61C271.723 162.027 272.858 162.231 274 162.21C275.132 162.23 276.257 162.026 277.31 161.61C278.255 161.226 279.097 160.627 279.77 159.86C280.469 159.041 280.993 158.089 281.31 157.06C281.684 155.849 281.866 154.587 281.85 153.32ZM303.91 162.15C304.704 162.162 305.493 162.015 306.23 161.72C306.893 161.447 307.485 161.027 307.96 160.49C308.456 159.906 308.824 159.225 309.04 158.49C309.299 157.638 309.424 156.751 309.41 155.86V139.39H315.88V155.9C315.9 157.508 315.618 159.106 315.05 160.61C314.524 161.993 313.713 163.25 312.67 164.3C311.596 165.359 310.312 166.18 308.9 166.71C305.665 167.854 302.135 167.854 298.9 166.71C297.488 166.18 296.203 165.359 295.13 164.3C294.088 163.252 293.28 161.994 292.76 160.61C292.198 159.104 291.92 157.507 291.94 155.9V139.39H298.4V155.88C298.386 156.771 298.51 157.658 298.77 158.51C298.988 159.244 299.356 159.925 299.85 160.51C300.323 161.052 300.915 161.476 301.58 161.75C302.322 162.037 303.114 162.172 303.91 162.15ZM345.26 139.39V167.26H341.89C341.461 167.273 341.034 167.191 340.64 167.02C340.251 166.818 339.91 166.535 339.64 166.19L326.5 149.57C326.55 150.07 326.59 150.57 326.61 151.01C326.63 151.45 326.61 151.91 326.61 152.32V167.26H320.91V139.39H324.31C324.546 139.375 324.784 139.375 325.02 139.39C325.199 139.411 325.375 139.458 325.54 139.53C325.701 139.607 325.849 139.708 325.98 139.83C326.152 139.992 326.312 140.166 326.46 140.35L339.71 157.09C339.643 156.557 339.6 156.037 339.58 155.53C339.56 155.023 339.56 154.55 339.58 154.11V139.39H345.26ZM375.94 153.32C375.974 155.227 375.634 157.123 374.94 158.9C374.274 160.56 373.274 162.065 372 163.32C370.695 164.592 369.143 165.582 367.44 166.23C365.547 166.931 363.538 167.27 361.52 167.23H350.65V139.39H361.48C363.502 139.363 365.511 139.719 367.4 140.44C369.101 141.093 370.652 142.083 371.96 143.35C373.232 144.603 374.233 146.104 374.9 147.76C375.606 149.528 375.96 151.417 375.94 153.32ZM369.32 153.32C369.335 152.056 369.153 150.798 368.78 149.59C368.463 148.556 367.939 147.596 367.24 146.77C366.567 145.996 365.726 145.387 364.78 144.99C363.73 144.561 362.604 144.35 361.47 144.37H357.15V162.29H361.47C362.604 162.311 363.73 162.1 364.78 161.67C365.726 161.273 366.567 160.664 367.24 159.89C367.939 159.064 368.463 158.104 368.78 157.07C369.154 155.856 369.336 154.59 369.32 153.32ZM403.81 167.26H398.81C398.326 167.285 397.847 167.148 397.45 166.87C397.104 166.611 396.832 166.266 396.66 165.87L395 161H384.4L382.75 165.86C382.596 166.255 382.336 166.601 382 166.86C381.613 167.155 381.136 167.307 380.65 167.29H375.65L386.44 139.42H393L403.81 167.26ZM393.54 156.61L391 149C390.807 148.513 390.603 147.943 390.39 147.29C390.177 146.637 389.96 145.927 389.74 145.16C389.547 145.94 389.343 146.66 389.13 147.32C388.917 147.98 388.713 148.553 388.52 149.04L385.96 156.63L393.54 156.61ZM423.32 144.52H415.48V167.26H409V144.52H401.16V139.39H423.31L423.32 144.52ZM433.09 167.26H426.59V139.39H433.09V167.26ZM465.83 153.32C465.859 155.24 465.52 157.148 464.83 158.94C464.166 160.645 463.158 162.195 461.867 163.493C460.576 164.79 459.032 165.807 457.33 166.48C453.514 167.934 449.296 167.934 445.48 166.48C443.773 165.81 442.223 164.795 440.927 163.497C439.631 162.2 438.617 160.648 437.95 158.94C436.559 155.319 436.559 151.311 437.95 147.69C438.617 146.002 439.621 144.468 440.9 143.18C442.208 141.88 443.766 140.86 445.48 140.18C447.367 139.434 449.381 139.064 451.41 139.09C453.436 139.064 455.448 139.437 457.33 140.19C459.036 140.873 460.587 141.893 461.89 143.19C463.164 144.479 464.164 146.014 464.83 147.7C465.522 149.492 465.861 151.4 465.83 153.32ZM459.21 153.32C459.225 152.059 459.043 150.804 458.67 149.6C458.354 148.571 457.83 147.618 457.13 146.8C456.456 146.032 455.614 145.43 454.67 145.04C453.619 144.617 452.493 144.41 451.36 144.43C450.213 144.393 449.071 144.587 448 145C447.051 145.387 446.206 145.99 445.53 146.76C444.831 147.579 444.307 148.531 443.99 149.56C443.276 151.995 443.276 154.585 443.99 157.02C444.307 158.049 444.831 159.001 445.53 159.82C446.205 160.589 447.051 161.189 448 161.57C449.063 161.987 450.198 162.191 451.34 162.17C452.472 162.19 453.597 161.986 454.65 161.57C455.595 161.187 456.438 160.587 457.11 159.82C457.81 159.002 458.334 158.049 458.65 157.02C459.03 155.824 459.222 154.575 459.22 153.32H459.21ZM494 139.39V167.26H490.6C490.171 167.273 489.744 167.191 489.35 167.02C488.96 166.82 488.619 166.536 488.35 166.19L475.21 149.57C475.263 150.07 475.3 150.55 475.32 151.01C475.34 151.47 475.34 151.907 475.32 152.32V167.26H469.62V139.39H473C473.236 139.375 473.474 139.375 473.71 139.39C473.889 139.41 474.065 139.458 474.23 139.53C474.391 139.607 474.539 139.708 474.67 139.83C474.842 139.992 475.002 140.166 475.15 140.35L488.4 157.09C488.333 156.557 488.29 156.037 488.27 155.53C488.25 155.023 488.25 154.55 488.27 154.11V139.39H494Z" fill="white"/>
<path d="M531 210.93H11C8.08262 210.93 5.28473 209.771 3.22183 207.708C1.15893 205.645 0 202.847 0 199.93V11C0 8.08262 1.15893 5.28473 3.22183 3.22183C5.28473 1.15893 8.08262 0 11 0H531C533.917 0 536.715 1.15893 538.778 3.22183C540.841 5.28473 542 8.08262 542 11V199.93C542 202.847 540.841 205.645 538.778 207.708C536.715 209.771 533.917 210.93 531 210.93ZM11 10C10.7348 10 10.4804 10.1054 10.2929 10.2929C10.1054 10.4804 10 10.7348 10 11V199.93C10 200.195 10.1054 200.45 10.2929 200.637C10.4804 200.825 10.7348 200.93 11 200.93H531C531.265 200.93 531.52 200.825 531.707 200.637C531.895 200.45 532 200.195 532 199.93V11C532 10.7348 531.895 10.4804 531.707 10.2929C531.52 10.1054 531.265 10 531 10H11Z" fill="white"/>
<path d="M207 183C205.674 183 204.402 182.473 203.464 181.536C202.527 180.598 202 179.326 202 178V33C202 31.6739 202.527 30.4021 203.464 29.4645C204.402 28.5268 205.674 28 207 28C208.326 28 209.598 28.5268 210.536 29.4645C211.473 30.4021 212 31.6739 212 33V178C212 179.326 211.473 180.598 210.536 181.536C209.598 182.473 208.326 183 207 183Z" fill="white"/>
<path d="M82.0899 237.65L69.5399 269H62.9999L50.3999 237.65H56.2499C56.7946 237.623 57.3328 237.778 57.7799 238.09C58.1659 238.384 58.4691 238.774 58.6599 239.22L64.7199 256C65.0066 256.733 65.2866 257.533 65.5599 258.4C65.8332 259.267 66.0899 260.173 66.3299 261.12C66.5299 260.173 66.7566 259.267 67.0099 258.4C67.2632 257.533 67.5332 256.733 67.8199 256L73.8199 239.23C74.0001 238.797 74.2938 238.42 74.6699 238.14C75.1059 237.809 75.643 237.64 76.1899 237.66L82.0899 237.65ZM91.8799 243.24V250.55H101.73V255.93H91.8799V263.39H104.74V269H84.5699V237.65H104.74V243.24H91.8799ZM134.83 269H128.25C127.728 269.039 127.205 268.93 126.742 268.686C126.278 268.442 125.893 268.073 125.63 267.62L120.43 258.53C120.233 258.152 119.925 257.843 119.549 257.643C119.172 257.443 118.744 257.362 118.32 257.41H116.47V269H109.2V237.65H119.4C121.353 237.612 123.302 237.848 125.19 238.35C126.612 238.729 127.942 239.393 129.1 240.3C130.071 241.082 130.828 242.096 131.3 243.25C131.768 244.427 132.002 245.684 131.99 246.95C131.996 247.925 131.857 248.895 131.58 249.83C131.313 250.721 130.908 251.565 130.38 252.33C129.824 253.114 129.149 253.805 128.38 254.38C127.557 255.003 126.648 255.502 125.68 255.86C126.159 256.108 126.605 256.414 127.01 256.77C127.44 257.151 127.817 257.588 128.13 258.07L134.83 269ZM119.39 252.4C120.249 252.42 121.105 252.291 121.92 252.02C122.556 251.816 123.14 251.474 123.63 251.02C124.081 250.585 124.423 250.051 124.63 249.46C124.834 248.841 124.935 248.192 124.93 247.54C124.966 246.935 124.864 246.33 124.632 245.771C124.399 245.211 124.043 244.712 123.59 244.31C122.385 243.442 120.91 243.031 119.43 243.15H116.51V252.44L119.39 252.4ZM144.79 269H137.48V237.65H144.79V269ZM158.16 243.24V251.17H168.87V256.78H158.16V269H150.85V237.65H171V243.24H158.16ZM182.52 269H175.21V237.65H182.52V269ZM195.89 243.24V250.55H205.74V255.93H195.89V263.39H208.75V269H188.58V237.65H208.75V243.24H195.89ZM241.64 253.3C241.663 255.446 241.265 257.576 240.47 259.57C239.725 261.446 238.602 263.148 237.17 264.57C235.686 265.989 233.926 267.089 232 267.8C229.876 268.603 227.62 269 225.35 268.97H213.22V237.65H225.39C227.661 237.62 229.918 238.021 232.04 238.83C233.953 239.563 235.698 240.675 237.17 242.1C238.604 243.52 239.728 245.223 240.47 247.1C241.258 249.071 241.655 251.177 241.64 253.3ZM234.2 253.3C234.219 251.881 234.017 250.467 233.6 249.11C233.243 247.947 232.655 246.869 231.87 245.94C231.115 245.071 230.171 244.386 229.11 243.94C227.93 243.456 226.665 243.218 225.39 243.24H220.53V263.39H225.39C226.665 263.412 227.93 263.174 229.11 262.69C230.171 262.244 231.115 261.559 231.87 260.69C232.655 259.761 233.243 258.683 233.6 257.52C234.022 256.154 234.228 254.73 234.21 253.3H234.2ZM286.62 253.3C286.64 255.462 286.242 257.608 285.45 259.62C284.703 261.536 283.569 263.277 282.119 264.735C280.668 266.192 278.932 267.334 277.02 268.09C272.73 269.724 267.99 269.724 263.7 268.09C261.782 267.337 260.041 266.196 258.585 264.739C257.129 263.281 255.99 261.539 255.24 259.62C253.678 255.552 253.678 251.049 255.24 246.98C255.987 245.083 257.113 243.357 258.55 241.91C260.02 240.446 261.772 239.296 263.7 238.53C265.822 237.689 268.088 237.271 270.37 237.3C272.647 237.272 274.906 237.693 277.02 238.54C278.941 239.313 280.686 240.466 282.15 241.93C283.58 243.38 284.703 245.105 285.45 247C286.241 249.005 286.638 251.144 286.62 253.3ZM279.18 253.3C279.2 251.884 278.997 250.473 278.58 249.12C278.224 247.963 277.635 246.891 276.85 245.97C276.096 245.1 275.152 244.415 274.09 243.97C272.909 243.493 271.644 243.259 270.37 243.28C269.086 243.258 267.812 243.493 266.62 243.97C265.554 244.413 264.606 245.098 263.85 245.97C263.064 246.891 262.476 247.963 262.12 249.12C261.316 251.859 261.316 254.771 262.12 257.51C262.476 258.667 263.064 259.739 263.85 260.66C264.603 261.535 265.552 262.22 266.62 262.66C267.813 263.13 269.087 263.361 270.37 263.34C271.643 263.361 272.907 263.13 274.09 262.66C275.154 262.218 276.099 261.533 276.85 260.66C277.635 259.739 278.224 258.667 278.58 257.51C278.999 256.147 279.202 254.726 279.18 253.3ZM302 237.65C303.926 237.611 305.847 237.877 307.69 238.44C309.128 238.883 310.459 239.619 311.6 240.6C312.604 241.488 313.382 242.602 313.87 243.85C314.36 245.126 314.607 246.483 314.6 247.85C314.618 249.317 314.363 250.775 313.85 252.15C313.36 253.434 312.572 254.582 311.55 255.5C310.41 256.492 309.074 257.235 307.63 257.68C305.81 258.235 303.913 258.499 302.01 258.46H298.23V269H290.9V237.65H302ZM302 253C302.71 253.118 303.438 253.069 304.125 252.856C304.812 252.642 305.44 252.271 305.958 251.771C306.476 251.272 306.87 250.658 307.108 249.978C307.347 249.299 307.422 248.574 307.33 247.86C307.344 247.18 307.236 246.502 307.01 245.86C306.798 245.283 306.456 244.763 306.01 244.34C305.538 243.887 304.971 243.546 304.35 243.34C303.581 243.096 302.777 242.982 301.97 243H298.19V253H302ZM325.56 243.24V250.55H335.41V255.93H325.56V263.39H338.42V269H318.25V237.65H338.42V243.24H325.56ZM368.51 269H361.93C361.408 269.039 360.885 268.93 360.422 268.686C359.958 268.442 359.573 268.073 359.31 267.62L354.11 258.53C353.913 258.152 353.605 257.843 353.229 257.643C352.852 257.443 352.424 257.362 352 257.41H350.15V269H342.88V237.65H353.07C355.023 237.612 356.972 237.848 358.86 238.35C360.282 238.729 361.612 239.393 362.77 240.3C363.741 241.082 364.498 242.096 364.97 243.25C365.438 244.427 365.672 245.684 365.66 246.95C365.666 247.925 365.527 248.895 365.25 249.83C364.983 250.721 364.578 251.565 364.05 252.33C363.494 253.114 362.819 253.805 362.05 254.38C361.227 255.003 360.318 255.502 359.35 255.86C359.829 256.108 360.275 256.414 360.68 256.77C361.11 257.151 361.487 257.588 361.8 258.07L368.51 269ZM353.07 252.4C353.929 252.42 354.785 252.291 355.6 252.02C356.236 251.816 356.82 251.474 357.31 251.02C357.761 250.585 358.103 250.051 358.31 249.46C358.514 248.841 358.615 248.192 358.61 247.54C358.646 246.935 358.544 246.33 358.312 245.771C358.079 245.211 357.723 244.712 357.27 244.31C356.065 243.442 354.59 243.031 353.11 243.15H350.19V252.44L353.07 252.4Z" fill="white"/>
<path d="M399.26 269H393.63C393.085 269.027 392.547 268.872 392.1 268.56C391.714 268.266 391.41 267.877 391.22 267.43L389.37 261.97H377.46L375.61 267.43C375.429 267.863 375.136 268.239 374.76 268.52C374.324 268.851 373.787 269.02 373.24 269H367.56L379.69 237.67H387.13L399.26 269ZM387.72 257L384.82 248.42C384.607 247.873 384.377 247.233 384.13 246.5C383.883 245.767 383.64 244.967 383.4 244.1C383.187 244.973 382.957 245.783 382.71 246.53C382.463 247.277 382.233 247.92 382.02 248.46L379.13 257H387.72ZM421.19 243.41H412.37V269H405.1V243.41H396.28V237.65H421.18L421.19 243.41ZM454.88 253.3C454.9 255.462 454.502 257.608 453.71 259.62C452.963 261.536 451.829 263.277 450.379 264.735C448.928 266.192 447.192 267.334 445.28 268.09C440.99 269.724 436.25 269.724 431.96 268.09C430.042 267.337 428.301 266.196 426.845 264.739C425.389 263.281 424.251 261.539 423.5 259.62C421.938 255.552 421.938 251.049 423.5 246.98C424.247 245.083 425.374 243.357 426.81 241.91C428.28 240.446 430.032 239.296 431.96 238.53C434.082 237.689 436.348 237.271 438.63 237.3C440.907 237.272 443.167 237.693 445.28 238.54C447.201 239.313 448.946 240.466 450.41 241.93C451.84 243.38 452.963 245.105 453.71 247C454.501 249.005 454.898 251.144 454.88 253.3ZM447.44 253.3C447.46 251.884 447.257 250.473 446.84 249.12C446.484 247.963 445.896 246.891 445.11 245.97C444.356 245.1 443.412 244.415 442.35 243.97C441.169 243.493 439.904 243.259 438.63 243.28C437.347 243.258 436.072 243.493 434.88 243.97C433.814 244.413 432.866 245.098 432.11 245.97C431.324 246.891 430.736 247.963 430.38 249.12C429.576 251.859 429.576 254.771 430.38 257.51C430.736 258.667 431.324 259.739 432.11 260.66C432.863 261.535 433.812 262.22 434.88 262.66C436.073 263.13 437.348 263.361 438.63 263.34C439.903 263.361 441.167 263.13 442.35 262.66C443.414 262.218 444.359 261.533 445.11 260.66C445.896 259.739 446.484 258.667 446.84 257.51C447.259 256.147 447.462 254.726 447.44 253.3ZM484.79 269H478.21C477.688 269.039 477.165 268.93 476.702 268.686C476.239 268.442 475.853 268.073 475.59 267.62L470.39 258.53C470.193 258.152 469.885 257.843 469.509 257.643C469.132 257.443 468.704 257.362 468.28 257.41H466.43V269H459.16V237.65H469.35C471.303 237.612 473.252 237.848 475.14 238.35C476.562 238.729 477.892 239.393 479.05 240.3C480.021 241.082 480.778 242.096 481.25 243.25C481.718 244.427 481.952 245.684 481.94 246.95C481.946 247.925 481.808 248.895 481.53 249.83C481.263 250.721 480.859 251.565 480.33 252.33C479.774 253.114 479.1 253.805 478.33 254.38C477.508 255.003 476.598 255.502 475.63 255.86C476.109 256.108 476.555 256.414 476.96 256.77C477.39 257.151 477.767 257.588 478.08 258.07L484.79 269ZM469.35 252.4C470.209 252.42 471.065 252.291 471.88 252.02C472.516 251.816 473.1 251.474 473.59 251.02C474.041 250.585 474.383 250.051 474.59 249.46C474.794 248.841 474.895 248.192 474.89 247.54C474.926 246.935 474.824 246.33 474.592 245.771C474.36 245.211 474.003 244.712 473.55 244.31C472.345 243.442 470.87 243.031 469.39 243.15H466.47V252.44L469.35 252.4Z" fill="white"/>
<path d="M109.06 155C106.962 155.024 104.913 155.629 103.137 156.746C101.362 157.863 99.9298 159.45 99 161.33L98.75 161.81L98.24 161.65C94.9935 160.717 92.0263 159 89.6 156.65C87.1175 154.387 85.3253 151.468 84.43 148.23C83.2181 144.535 83.0522 140.576 83.9505 136.792C84.8488 133.008 86.7764 129.546 89.52 126.79C89.5417 126.68 89.5897 126.577 89.66 126.49L89.81 126.33C90.6547 125.42 91.1149 124.219 91.0944 122.978C91.0739 121.737 90.5743 120.551 89.7 119.67C89.2562 119.226 88.7292 118.874 88.1493 118.634C87.5693 118.394 86.9478 118.27 86.32 118.27C85.6923 118.27 85.0707 118.394 84.4908 118.634C83.9109 118.874 83.3839 119.226 82.94 119.67C80.4277 122.311 77.2217 124.189 73.69 125.09C67.05 126.6 62.14 126.49 61.01 124.7C56.8064 123.111 53.1574 120.331 50.51 116.7C47.7153 112.685 46.4097 107.821 46.8186 102.946C47.2276 98.0718 49.3254 93.4929 52.75 90C55.0469 87.765 57.7667 86.0107 60.75 84.84C64.8916 83.3537 69.393 83.193 73.63 84.38C76.7409 85.2492 79.6066 86.831 82 89C82.1972 89.2135 82.3746 89.4445 82.53 89.69C82.6469 89.8723 82.7808 90.0431 82.93 90.2C83.3731 90.6436 83.8992 90.9955 84.4783 91.2355C85.0574 91.4756 85.6781 91.5992 86.305 91.5992C86.9319 91.5992 87.5527 91.4756 88.1318 91.2355C88.7109 90.9955 89.237 90.6436 89.68 90.2C90.1381 89.7329 90.4925 89.1743 90.7199 88.5609C90.9474 87.9474 91.0429 87.2929 91 86.64C91.0506 85.9752 90.96 85.3073 90.7342 84.6799C90.5084 84.0526 90.1526 83.4801 89.69 83C89.5805 82.8981 89.4635 82.8045 89.34 82.72L89.44 82.45L89.28 82.68C89.1118 82.5722 88.9544 82.4482 88.81 82.31C86.3827 79.5783 84.7102 76.2606 83.9578 72.6846C83.2054 69.1086 83.3992 65.3982 84.52 61.92C84.9179 60.7159 84.8211 59.4031 84.251 58.2704C83.6809 57.1377 82.6841 56.2778 81.48 55.88C80.276 55.4822 78.9632 55.579 77.8304 56.1491C76.6977 56.7192 75.8379 57.7159 75.44 58.92C73.8926 63.816 73.6037 69.0229 74.6 74.06L74.77 74.98L73.85 74.79C68.4588 73.6263 62.8529 73.9477 57.63 75.72C53.93 77 50.3 79.33 46.19 83C41.1179 88.0945 37.989 94.8038 37.3461 101.964C36.7031 109.124 38.5867 116.283 42.67 122.2C46.4396 127.365 51.6104 131.342 57.57 133.66C60.9013 134.851 64.4124 135.459 67.95 135.46C69.6945 135.4 71.4292 135.173 73.13 134.78L74.73 134.47L74.53 135.41C73.4055 140.539 73.6469 145.873 75.23 150.88C76.5553 155.68 79.1821 160.02 82.82 163.42C87.2068 167.788 92.8123 170.727 98.9 171.85L99.18 171.9L99.33 172.15C100.301 173.883 101.712 175.33 103.42 176.345C105.128 177.359 107.073 177.906 109.06 177.93C112.102 177.93 115.02 176.722 117.171 174.571C119.322 172.419 120.53 169.502 120.53 166.46C120.53 163.418 119.322 160.501 117.171 158.349C115.02 156.198 112.102 154.99 109.06 154.99V155Z" fill="white"/>
<path d="M170.33 87.25C166.562 82.0806 161.391 78.1 155.43 75.78C150.201 73.9884 144.581 73.6633 139.18 74.84L138.26 75.03L138.43 74.11C139.432 69.1912 139.167 64.0982 137.66 59.31C136.331 54.5169 133.709 50.1819 130.08 46.78C125.568 42.2913 119.769 39.3203 113.49 38.28H113.23L113.08 38.05C112.068 36.517 110.695 35.2552 109.083 34.3749C107.47 33.4946 105.667 33.0225 103.83 33C101.753 32.9851 99.7118 33.5336 97.9224 34.5873C96.133 35.6409 94.6629 37.1601 93.6687 38.9832C92.6745 40.8063 92.1933 42.8649 92.2766 44.9398C92.3598 47.0146 93.0042 49.0281 94.1413 50.7657C95.2783 52.5033 96.8653 53.8999 98.7333 54.8069C100.601 55.7138 102.68 56.0971 104.749 55.9159C106.818 55.7347 108.798 54.9958 110.48 53.778C112.162 52.5601 113.482 50.9088 114.3 49L114.54 48.46L115.09 48.66C118.171 49.6119 120.987 51.273 123.31 53.51C125.8 55.7973 127.595 58.7397 128.49 62C129.603 65.4649 129.796 69.1596 129.051 72.7219C128.306 76.2841 126.648 79.5916 124.24 82.32C124.071 82.4735 123.89 82.6139 123.7 82.74C123.558 82.8287 123.425 82.929 123.3 83.04C122.848 83.5088 122.499 84.0666 122.276 84.6779C122.052 85.2891 121.958 85.9404 122 86.59C121.931 87.5528 122.159 88.5136 122.653 89.3428C123.147 90.1721 123.883 90.8299 124.763 91.2277C125.642 91.6255 126.623 91.7441 127.571 91.5675C128.52 91.3908 129.392 90.9275 130.07 90.24C130.209 90.0865 130.336 89.9227 130.45 89.75C130.597 89.5149 130.76 89.291 130.94 89.08C133.327 86.8703 136.196 85.2473 139.32 84.34C143.487 83.1714 147.911 83.304 152 84.72C156.203 86.3096 159.852 89.0896 162.5 92.72C165.309 96.7442 166.621 101.625 166.206 106.515C165.791 111.406 163.677 115.996 160.23 119.49C157.935 121.727 155.214 123.481 152.23 124.65C148.086 126.126 143.588 126.286 139.35 125.11C135.851 124.13 132.665 122.263 130.1 119.69L120.82 110.42L120.93 110.06C121.339 108.97 121.575 107.823 121.63 106.66C121.756 104.065 121.042 101.498 119.594 99.3403C118.146 97.1829 116.04 95.55 113.59 94.6839C111.141 93.8179 108.477 93.7649 105.994 94.5327C103.512 95.3006 101.343 96.8484 99.8104 98.9465C98.2774 101.045 97.4618 103.581 97.4847 106.179C97.5075 108.778 98.3675 111.299 99.9371 113.37C101.507 115.441 103.702 116.95 106.198 117.675C108.693 118.399 111.356 118.299 113.79 117.39L114.17 117.27L114.44 117.56L122.95 126.07C123.084 126.234 123.179 126.425 123.23 126.63V126.78C125.998 129.534 127.943 133.004 128.847 136.802C129.752 140.6 129.579 144.575 128.35 148.28C128.15 148.875 128.072 149.503 128.12 150.128C128.168 150.754 128.342 151.363 128.63 151.92C128.912 152.481 129.304 152.981 129.781 153.389C130.258 153.798 130.812 154.107 131.41 154.3C131.887 154.46 132.387 154.541 132.89 154.54C133.899 154.542 134.882 154.223 135.698 153.63C136.514 153.037 137.121 152.2 137.43 151.24C139.07 146.116 139.339 140.651 138.21 135.39L138.01 134.39L139.15 134.62C141.088 135.087 143.068 135.358 145.06 135.43C148.568 135.43 152.05 134.821 155.35 133.63C159.03 132.38 162.67 130.08 166.8 126.38C171.859 121.293 174.982 114.598 175.626 107.452C176.271 100.306 174.397 93.1603 170.33 87.25Z" fill="white"/>
</g>
<defs>
<clipPath id="clip0_40_40">
<rect width="542" height="270" fill="white"/>
</clipPath>
</defs>
</svg>
