<svg width="601" height="231" viewBox="0 0 601 231" fill="none" xmlns="http://www.w3.org/2000/svg">
<g clip-path="url(#clip0_40_25)">
<path fill-rule="evenodd" clip-rule="evenodd" d="M348.4 145.5L328.7 151.7C332.6 144.8 337.3 137.2 342 131.3L348.4 145.5ZM283.4 0.799988L322 86.8C317.612 92.7895 304.467 110.947 292.096 128.738V71.6497H257.096V148.077C252.268 144.808 247.189 142.508 242.296 141.684V137.85C242.296 137.55 242.096 137.45 241.896 137.65C241.896 137.65 238.096 140.65 221.496 142.35C216.796 142.85 214.496 142.65 212.796 142.35C189.196 138.35 188.096 121.15 188.096 121.15C188.096 120.985 188.066 120.759 188.038 120.556C188.016 120.39 187.996 120.24 187.996 120.15V113.55C187.996 113.25 187.996 112.75 188.096 112.55C188.096 112.55 189.696 94.0497 212.796 92.0497H221.496C231.596 93.3497 239.796 98.3497 239.796 98.3497C240.096 98.4497 240.296 98.3497 240.296 98.0497V74.8497C240.296 74.5497 240.096 74.2497 239.796 74.0497C239.796 74.0497 235.196 71.0497 221.196 70.2497C220.496 69.8497 208.196 69.7497 204.896 70.2497C153.896 74.3497 151.996 111.25 151.996 112.85V121.85C151.996 122.95 151.996 160.65 204.896 163.95C209.14 164.276 216.65 164.07 219.81 163.983H219.811L219.826 163.982H219.829C220.53 163.963 221.014 163.95 221.196 163.95C221.253 163.95 221.309 163.95 221.365 163.949C222.48 170.137 225.539 176.775 229.8 182.9L79.1001 230.4L0.800049 16.8L283.4 0.799988ZM274.596 62.9496C286.396 62.9496 295.996 53.9497 295.996 42.7497C295.996 31.5497 286.396 22.5497 274.596 22.5497C262.796 22.5497 253.196 31.5497 253.196 42.7497C253.196 53.8497 262.796 62.9496 274.596 62.9496ZM55.2959 163.35C54.9959 163.35 54.7959 163.15 54.7959 162.85V72.1496C54.7959 71.8496 54.9959 71.6496 55.2959 71.6496H99.4959C110.696 71.1496 144.896 74.2496 144.896 103.15C144.896 139.65 90.3959 135.75 90.3959 135.75C90.0959 135.75 89.8959 135.95 89.8959 136.25V162.85C89.8959 163.15 89.6959 163.35 89.3959 163.35H55.2959ZM89.2959 91.5496V115.45H98.6959C98.6959 115.45 109.196 114.95 110.796 105.25C110.996 105.05 110.996 100.95 110.796 100.35C109.796 92.0496 97.6959 91.5496 97.6959 91.5496H89.2959Z" fill="white"/>
<path d="M275.6 207.3C278.4 207.3 280.6 207.3 284.2 205.7C296.6 199.2 338.5 96.9 382.7 65.4C383 65.2 383.3 64.9 383.5 64.6C383.8 64.2 383.8 63.8 383.8 63.8C383.8 63.8 383.8 61.7 377.3 61.7C338 60.6 297.1 143.1 275.6 175.7C275.3 176.1 273.9 175.7 273.9 175.7C273.9 175.7 259.5 158.7 247 152.2C246.7 152.1 245.3 151.6 243.8 151.7C242.8 151.7 237 152.9 234.3 155.7C231.1 159.1 231.2 161 231.2 165.1C231.2 165.4 231.4 166.8 231.8 167.5C234.9 172.9 248.8 192.1 260.3 202.7C262 204 264.7 207.3 275.6 207.3Z" fill="white"/>
<path d="M410.5 131.2L416.5 133C416.1 134.7 415.5 136.1 414.6 137.2C413.7 138.3 412.7 139.2 411.4 139.7C410.1 140.3 408.5 140.6 406.5 140.6C404.1 140.6 402.2 140.3 400.6 139.6C399.1 138.9 397.8 137.7 396.7 135.9C395.6 134.2 395 131.9 395 129.2C395 125.6 396 122.8 397.9 120.8C399.8 118.8 402.6 117.9 406.1 117.9C408.9 117.9 411 118.5 412.6 119.6C414.2 120.7 415.4 122.4 416.1 124.8L410.1 126.1C409.9 125.4 409.7 124.9 409.4 124.6C409 124.1 408.6 123.7 408 123.4C407.4 123.1 406.8 123 406.2 123C404.7 123 403.5 123.6 402.7 124.9C402.1 125.8 401.8 127.3 401.8 129.2C401.8 131.6 402.2 133.3 402.9 134.2C403.6 135.1 404.7 135.6 406 135.6C407.3 135.6 408.3 135.2 408.9 134.5C409.7 133.6 410.2 132.6 410.5 131.2Z" fill="white"/>
<path d="M418.9 129.2C418.9 125.6 419.9 122.8 421.9 120.8C423.9 118.8 426.7 117.8 430.3 117.8C434 117.8 436.8 118.8 438.8 120.7C440.8 122.7 441.8 125.4 441.8 129C441.8 131.6 441.4 133.7 440.5 135.3C439.6 136.9 438.4 138.2 436.7 139.1C435.1 140 433 140.5 430.6 140.5C428.1 140.5 426.1 140.1 424.4 139.3C422.8 138.5 421.5 137.3 420.4 135.5C419.3 133.7 418.9 131.8 418.9 129.2ZM425.7 129.2C425.7 131.4 426.1 133 426.9 134C427.7 135 428.8 135.5 430.3 135.5C431.8 135.5 432.9 135 433.7 134.1C434.5 133.1 434.9 131.4 434.9 129C434.9 126.9 434.5 125.4 433.6 124.5C432.8 123.5 431.6 123.1 430.2 123.1C428.8 123.1 427.7 123.6 426.9 124.6C426.1 125.4 425.7 127 425.7 129.2Z" fill="white"/>
<path d="M454.2 118.2L457.6 131.6L461 118.2H469.9V140.2H464.3V123.4L460 140.2H455L450.7 123.4V140.2H445.1V118.2H454.2Z" fill="white"/>
<path d="M474.3 118.2H485.6C488.1 118.2 489.9 118.8 491.1 120C492.3 121.2 492.9 122.8 492.9 125C492.9 127.2 492.2 129 490.9 130.2C489.6 131.5 487.5 132.1 484.8 132.1H481.1V140.3H474.3V118.2ZM481.1 127.6H482.8C484.1 127.6 485 127.4 485.6 126.9C486.1 126.4 486.4 125.9 486.4 125.2C486.4 124.5 486.2 123.9 485.7 123.4C485.2 122.9 484.4 122.7 483.1 122.7H481.2L481.1 127.6Z" fill="white"/>
<path d="M496.5 118.2H503.3V134.8H513.9V140.2H496.5V118.2Z" fill="white"/>
<path d="M517.3 118.2H524.1V140.2H517.3V118.2Z" fill="white"/>
<path d="M542.5 136.5H534.8L533.7 140.1H526.8L535.1 118.1H542.5L550.8 140.1H543.7L542.5 136.5ZM541.1 131.8L538.7 123.9L536.3 131.8H541.1Z" fill="white"/>
<path d="M552.9 118.2H559.2L567.5 130.4V118.2H573.9V140.2H567.5L559.3 128.1V140.2H552.9V118.2Z" fill="white"/>
<path d="M576.9 118.2H597.6V123.6H590.7V140.2H583.9V123.6H577L576.9 118.2Z" fill="white"/>
<path d="M394.3 34.5H427C433.5 34.5 438.7 35.4 442.6 37.1C446.6 38.9 449.9 41.4 452.4 44.6C455 47.9 456.9 51.7 458 56C459.2 60.3 459.8 64.9 459.8 69.8C459.8 77.4 458.9 83.3 457.2 87.5C455.5 91.7 453.1 95.2 450 98.1C446.9 100.9 443.6 102.8 440.1 103.8C435.3 105.1 430.9 105.7 427 105.7H394.3V34.5ZM416.3 50.6V89.5H421.7C426.3 89.5 429.6 89 431.5 88C433.4 87 435 85.2 436.1 82.7C437.2 80.2 437.8 76 437.8 70.3C437.8 62.7 436.6 57.6 434.1 54.8C431.6 52 427.6 50.6 421.8 50.6H416.3Z" fill="white"/>
<path d="M465.9 82.2L486.9 80.9C487.4 84.3 488.3 86.9 489.7 88.7C492 91.6 495.2 93 499.4 93C502.5 93 505 92.3 506.7 90.8C508.4 89.3 509.3 87.6 509.3 85.7C509.3 83.9 508.5 82.2 506.9 80.7C505.3 79.2 501.5 77.9 495.6 76.6C485.9 74.4 479.1 71.5 474.9 67.9C470.7 64.3 468.7 59.7 468.7 54.1C468.7 50.4 469.8 47 471.9 43.7C474 40.4 477.2 37.9 481.5 36C485.8 34.1 491.6 33.2 499 33.2C508.1 33.2 515.1 34.9 519.8 38.3C524.6 41.7 527.4 47.1 528.3 54.5L507.5 55.7C506.9 52.5 505.8 50.2 504 48.7C502.2 47.2 499.8 46.5 496.7 46.5C494.1 46.5 492.2 47 490.9 48.1C489.6 49.2 489 50.5 489 52.1C489 53.2 489.5 54.3 490.6 55.2C491.6 56.1 494.1 57 498 57.8C507.6 59.9 514.5 62 518.7 64.1C522.9 66.2 525.9 68.9 527.8 72C529.7 75.1 530.6 78.7 530.6 82.6C530.6 87.2 529.3 91.4 526.8 95.2C524.3 99.1 520.7 102 516.2 104C511.7 106 505.9 107 499 107C486.9 107 478.5 104.7 473.8 100C469.2 95.3 466.6 89.4 465.9 82.2Z" fill="white"/>
<path d="M536.2 82.2L557.2 80.9C557.7 84.3 558.6 86.9 560 88.7C562.3 91.6 565.5 93 569.7 93C572.8 93 575.3 92.3 577 90.8C578.7 89.3 579.6 87.6 579.6 85.7C579.6 83.9 578.8 82.2 577.2 80.7C575.6 79.2 571.8 77.9 565.9 76.6C556.2 74.4 549.4 71.5 545.2 67.9C541.1 64.3 539 59.7 539 54.1C539 50.4 540.1 47 542.2 43.7C544.3 40.4 547.5 37.9 551.8 36C556.1 34.1 561.9 33.2 569.3 33.2C578.4 33.2 585.4 34.9 590.1 38.3C594.9 41.7 597.7 47.1 598.6 54.5L577.8 55.7C577.2 52.5 576.1 50.2 574.3 48.7C572.5 47.2 570.1 46.5 567 46.5C564.4 46.5 562.5 47 561.2 48.1C559.9 49.2 559.3 50.5 559.3 52.1C559.3 53.2 559.8 54.3 560.9 55.2C561.9 56.1 564.4 57 568.3 57.8C577.9 59.9 584.8 62 589 64.1C593.2 66.2 596.2 68.9 598.1 72C600 75.1 600.9 78.7 600.9 82.6C600.9 87.2 599.6 91.4 597.1 95.2C594.6 99.1 591 102 586.5 104C582 106 576.2 107 569.3 107C557.2 107 548.8 104.7 544.1 100C539.4 95.3 536.8 89.4 536.2 82.2Z" fill="white"/>
</g>
<defs>
<clipPath id="clip0_40_25">
<rect width="601" height="231" fill="white"/>
</clipPath>
</defs>
</svg>
