<svg width="677" height="249" viewBox="0 0 677 249" fill="none" xmlns="http://www.w3.org/2000/svg">
<g clip-path="url(#clip0_40_2)">
<path d="M68.0001 212.9C60.2001 219.9 49.8001 223.5 39.3001 222.7C18.2001 221 3.30009 206.3 0.300097 184.3C-2.39991 164.2 2.40009 146.5 19.6001 134.1C38.3001 120.9 64.1001 125.3 77.3001 144C78.4001 145.6 79.5001 147.3 80.4001 149.1C82.2001 152.7 82.0001 154.6 78.0001 155.6C77.4001 155.6 76.9001 156 76.4001 156.2C73.2001 157.3 70.1001 160 66.8001 159.4C63.5001 158.8 63.4001 154.3 61.6001 151.8C54.5001 141.7 40.6001 139.2 30.5001 146.3C28.0001 148.1 25.8001 150.4 24.2001 153C16.2001 165.6 15.8001 181.7 23.2001 194.7C28.2001 203.8 37.6001 207.6 48.7001 206C57.2001 204.7 64.0001 198.2 65.7001 189.9C66.7001 186.2 65.7001 185.3 62.1001 185.5C57.8001 185.7 53.4001 185.5 49.1001 185.5C44.8001 185.5 43.8001 184.3 43.7001 180.3C43.7001 170.5 43.5001 170.5 53.0001 170.5H78.6001C81.6001 170.5 82.7001 171.4 82.5001 174.6V215.6C82.5001 219.7 80.7001 221.1 76.9001 220.8C76.1001 220.8 75.4001 220.8 74.6001 220.8C70.2001 220.7 65.2001 221.6 68.0001 212.9Z" fill="white"/>
<path d="M0.399975 51.6V10.6C0.399975 8.50001 -0.100025 6.00001 3.79997 6.00001C17.2 6.50001 30.7 5.10001 44.1 6.80001C56 8.10001 65.6 17 67.7 28.8C70.2 42.2 65.5 52.8 53.8 58.8C50.9 60.3 51 61.4 52.3 63.8C57.7 73.5 63 83.4 68.7 93.1C70.5 96.4 70.5 97.6 66.2 97.6C48 97.3 52.3 99.3 44.4 85.1C41 79 37.8 72.8 34.5 66.6C33.1 64 20.3 62.2 18.6 64.4C18.1 65.6 17.9 66.9 18 68.2V91.5C18 95.9 16.2 97.5 11.9 97.6C0.799973 97.9 0.799975 98 0.799975 86.7L0.399975 51.6ZM17.5 35.2V46C17.5 47.9 17.5 49.4 20.1 49.3C26.5 49.6 33 49.4 39.3 48.7C46.2 47.9 51.1 41.7 50.3 34.8V34.6C50.2 27.9 45 22.3 38.3 21.9C36 21.6 33.8 21.5 31.5 21.5C17.5 21.1 17.5 21.1 17.5 35.2Z" fill="white"/>
<path d="M182.8 161.3C198.7 150.7 208.9 151.1 220.7 162.9C227.5 155.2 238.1 152.1 248 154.7C256.8 156.3 263.1 164 263 172.9C263.3 187.1 263 201.3 263.2 215.5C263.2 219 261.9 220.6 258.2 220.7C247.4 221.2 247.4 221.3 247.4 210.6V180.5C247.4 173.3 245.1 170.3 239.6 169C234 167.9 228.4 170.5 225.7 175.5C223.6 179.6 222.6 184.1 222.8 188.7V215.9C222.8 219.6 221.7 220.8 218 220.7C207.1 220.7 207.1 220.7 207.1 210.1V182.3C207.1 174.1 203.9 169.5 197.9 168.7C191.2 168.4 185.2 172.9 183.6 179.4C182.1 186.3 181.6 193.3 182.2 200.3V215C182.2 219.1 180.5 220.7 176.3 220.6C164 220.3 166.5 222 166.4 210.9V163.2C166.4 160.5 166.2 157.3 169.2 156.3C173.2 155.1 177.5 155.1 181.5 156.3C183.2 156.6 181.9 159.3 182.8 161.3Z" fill="white"/>
<path d="M515.1 210.9C509.3 215 502.3 217.1 495.3 216.8C491.3 216.7 487.4 215.8 483.8 214.1C470.4 207.9 464.5 189 470.6 172.4C475.8 158.7 490.5 151.1 504.7 154.7C508.5 156 511.9 158 514.9 160.6C516.5 156.5 527.7 153.6 530.8 156.2C532 157.2 531.5 158.7 531.5 159.9C531.5 178.8 531.7 197.8 531.5 216.7C531.2 231.9 524.5 239 509.5 241.3C501.6 242.7 493.6 242.3 485.9 240.2C478.8 238.2 473.3 232.6 471.5 225.4C470.5 222.3 471.5 221.3 474.5 221.3H484.7C486.3 221.1 487.8 221.7 488.8 223C493.5 229.2 501.9 231.3 508.9 227.9C514.3 225.5 516.3 220.5 515.1 210.9ZM484.7 185.7C484.7 196.1 490.8 202.6 500.4 202.5C510 202.4 516.1 196.1 516.1 185.4C516.1 174.7 510.2 167.9 500.5 167.9C490.8 167.9 484.7 174.5 484.8 185.4L484.7 185.7Z" fill="white"/>
<path d="M292.1 160.1C298.4 155.1 306.5 152.9 314.4 154.1C330.5 157.1 341 173 339 191.6C338.6 194.8 338 198 337 201C331.4 219.6 311 229.7 293.2 216.4C290.6 223.8 284.4 220.1 279.9 220.3C275.4 220.5 276.5 215.6 276.5 212.8V135.4C276.5 130.8 277.6 129.2 282.4 129.4C293.7 129.9 292.3 127.7 292.4 139.4C292.1 145.9 292.1 152.5 292.1 160.1ZM323 187.1C322.7 184.6 322.2 182 321.6 179.6C320 173.3 314.5 168.8 308 168.6C301.3 168.4 295.3 172.7 293.3 179.1C291 185.4 291.2 192.4 294 198.5C296 203.8 301.1 207.3 306.8 207.3C312.6 207.6 318.1 204.3 320.7 199.1C322.3 195.2 323.1 191.2 323 187.1Z" fill="white"/>
<path d="M537.6 93.1C535.8 96.9 525.9 99.7 522.2 97.5C520.8 96.6 521.1 95.2 521.1 93.9V11.1C521.1 7.70001 522.3 6.50001 525.7 6.30001C536.5 5.70001 536.5 5.60001 536.5 16.8V32.1C536.5 35 536.9 36.6 540.3 34.7C560.8 23.5 579.9 38 582.9 58.1C583.7 63.7 583.5 69.4 582.3 75C578.8 92.1 558.7 109 537.6 93.1ZM567.1 64.4C567 62.3 566.9 60.3 566.6 58.2C565.5 51 559.4 45.6 552.1 45.2C545.2 44.7 538.9 49.3 537.4 56.1C535.3 62.9 535.9 70.2 539 76.6C541.5 81.7 546.9 84.7 552.5 84.2C557.8 84.1 562.5 80.9 564.4 76C566.2 72.4 567.1 68.5 567.1 64.5V64.4Z" fill="white"/>
<path d="M231.2 37.6C242.6 27.8 259.8 29 269.6 40.4C271.9 43 273.6 46 274.7 49.3C278.5 58.9 278.9 69.5 275.6 79.3C270.6 95 251.3 106.9 231 93.2C231 99.9 230.7 106 231 112.1C231.3 117 229.8 118.8 224.7 118.6C215.2 118.2 215.1 118.6 215.1 109V43.7C215.1 31.4 213.6 33.2 226.7 32.9C230.1 32.8 231.5 33.9 231.2 37.6ZM230.9 64.6C230.6 75.8 235.9 83.5 244.5 84.4C254.9 85.4 261.7 78 261.8 65.4C261.8 54.1 255.6 46.1 246.3 45.8C237 45.5 231.2 53.2 230.9 64.6Z" fill="white"/>
<path d="M155.4 220.6H140.6C139.9 220.6 138.6 220.6 138.4 220.3C135.4 214.5 132 218.8 128.9 220C122.3 222.5 115.1 222.8 108.4 220.7C100.2 218.4 94.4001 211.2 94.0001 202.7C93.7001 194.3 98.6001 186.6 106.3 183.3C112 181.2 117.8 179.6 123.8 178.7C126.5 178 129.4 177.6 132 176.8C133.9 176.3 136.6 176.5 136.7 173.6C136.8 171.1 135.4 168.7 133.2 167.5C126.2 163.6 117.3 166.2 113.4 173.2C112.9 174.9 111.2 175.8 109.5 175.5L103.9 175.2C96.6001 174.7 95.7001 173.6 98.7001 167C101 161.7 105.5 157.7 111 156C119.8 153 129.4 152.8 138.4 155.3C148.5 157.9 152.6 163.1 152.8 173.6C153 185.3 152.8 197.1 152.8 208.8C152.2 212.9 153.2 217 155.4 220.6ZM121.4 208.3C132.6 208.3 138 202.4 137 191.9C137 190.3 137 189 134.5 189.6C128.7 191.2 122.7 192.1 117 193.7C113.1 194.3 110.3 197.9 110.9 201.8C111 202.8 111.4 203.7 111.9 204.6C114.1 207.5 117.7 208.9 121.2 208.3H121.4Z" fill="white"/>
<path d="M115.6 68.4C109.3 68.4 103.1 68.7 96.8001 68.4C92.2001 68.2 92.3001 70 93.7001 73.4C98.2001 82.9 109.5 87 119 82.5C120.7 81.7 122.3 80.6 123.7 79.3C125.1 78 125.9 75 128.5 76.2C132.4 78.1 136.1 80.4 139.6 82.8C140.4 83.3 139.3 84.4 138.7 85.2C132 95.5 115 101.6 101.1 98.8C87.2001 96 78.6001 86.6 75.9001 71.6C73.2001 56.6 79.1001 42.4 89.8001 35.5C104.4 25.7 124.1 29.7 133.9 44.2C136.7 48.4 138.5 53.3 139.1 58.3C140.8 70.3 141.3 68.1 130.4 68.3C125.4 68.5 120.5 68.4 115.6 68.4ZM107.4 56.9H118.7C122.4 56.9 122.8 55.4 121.7 52.4C119.6 46.5 113.8 42.8 107.6 43.5C101.2 43.7 95.6001 48 93.6001 54.1C92.9001 56.7 94.0001 57 96.0001 56.9C99.8001 56.8 103.6 56.9 107.4 56.9Z" fill="white"/>
<path d="M653.2 68.4001H633.9C630.2 68.4001 629.8 69.7001 630.8 72.8001C634.7 82.3001 645.6 86.8001 655.1 82.9001C657.3 82.0001 659.2 80.7 660.9 79.1C662.8 76.4 666.4 75.8 669.1 77.6C669.4 77.8 669.6 78 669.9 78.2C678.8 83.7 678.9 83.7 670.9 90.5C650.9 107.7 620.2 99.3 614.1 75.2C610 58.1 616.3 41.0001 629.6 34.2001C652.8 22.6001 677.6 38.5 677.3 64.7C677.3 67.5 676.4 68.4001 673.7 68.3001C666.8 68.3001 660 68.4001 653.2 68.4001ZM645 56.9001H656.3C659.3 56.9001 659.9 56 659 53.3C657.3 47.3 651.6 43.2001 645.3 43.5001C638.7 43.5001 632.9 47.7 630.8 54C630.1 56.5 631.1 57 633.3 57C637.3 56.9 641.3 57 645.2 57L645 56.9001Z" fill="white"/>
<path d="M318 99.4001C299.9 99.6001 285.1 85.1001 284.9 67.0001C284.9 65.9001 284.9 64.9001 285 63.8001C285.7 43.5001 300 30.3001 320.5 31.0001C338.9 31.6001 352.4 46.9001 351.8 66.5001C351.2 86.1001 337 100 318 99.4001ZM335 64.9001C335.1 61.6001 334.4 58.3001 333 55.2001C330.5 48.8001 324.1 44.9001 317.2 45.4001C310.6 45.4001 304.8 49.8001 302.9 56.1001C300.8 62.1001 301 68.6001 303.4 74.4001C306.5 82.4001 315.2 86.6001 323.4 84.2001C330.6 82.4001 335 75.2001 335 64.9001Z" fill="white"/>
<path d="M375.6 38.4C381.3 33.2 388.9 30.5 396.6 30.8C406.6 30.8 414.8 38.6 415.3 48.6C416 63.5 415.7 78.5 415.9 93.7C415.9 96.5 414.8 97.8 411.8 97.8C399.9 98.7 400 98.8 400 87.1V58.7C400 51.5 396.7 47.5 391.2 46.7C385 45.6 378.9 49.2 376.8 55.2C375.6 58.6 375.1 62.2 375.3 65.8V92C375.3 96.1 374.3 97.8 369.9 97.8C359 97.8 359 98 359 87.1V40.5C359 32.8 359 32.8 366.5 32.8C367.5 32.9 368.4 32.9 369.4 32.8C373 32.4 375.9 33 375.6 38.4Z" fill="white"/>
<path d="M453.3 99.4C443.6 99.4 434.1 96.2 426.3 90.4C423.8 88.5 423.5 87.2 426.3 85.4C427.6 84.6 428.7 83.6 429.8 82.5C432.9 79.2 435.4 78.2 439.6 81.8C445.3 86.5 453.1 87.8 460.1 85.4C463.3 84.5 466.3 82.8 466.3 78.9C466.3 75 462.9 74.3 459.9 73.6C452.6 71.8 444.9 71.3 437.9 68.1C424.8 62.1 422.5 47.6 433.1 37.9C434.9 36.1 437 34.7 439.3 33.8C452.2 28.2 467.2 30.1 478.3 38.8C481.4 41.1 482.8 43.4 478.7 46.1C478.1 46.5 477.5 47.1 477.1 47.7C473.8 51.3 471.4 53.9 466.9 48.1C462.8 43.1 456.3 42.6 450.1 43.7C446.8 44.3 443.6 45.6 443.3 49.4C443 53.2 446.5 54.8 449.6 55.5C455.5 56.8 461.5 57.8 467.4 59.1C477 61.1 482.5 66.3 483.8 74.2C484.8 82.7 480.4 91 472.8 95C466.6 98.2 459.9 99.7 453.3 99.4Z" fill="white"/>
<path d="M175.4 99.3C166.7 98.9 158.3 95.9 151.4 90.6C148.8 88.7 148.1 87.1 151.4 85.2C152 84.8 152.6 84.3 153.2 83.8C157 79.9 160 77.5 165.5 82.5C171.2 86.9 178.8 87.9 185.5 85.1C188.6 84.6 190.9 81.8 190.9 78.6C190.9 74.9 187.8 74.2 185 73.6C178.9 72.2 172.7 71.2 166.8 69.5C156.8 66.6 151.4 60.4 151.2 52.3C151.3 43.3 157.3 35.5 165.9 32.9C178.2 28.3 192 30.4 202.5 38.4C206.2 41.1 207.4 43.5 203 46.6C202.7 46.8 202.4 47.1 202.2 47.3C198.7 51.4 196 53.5 191.1 47.9C186.2 42.3 179.3 42.3 172.6 44.3C169.9 44.8 167.9 47.1 167.9 49.9C167.9 52.5 169.8 54.7 172.4 55C178.8 56.6 185.4 57.8 191.8 59.1C201.8 61.3 207.4 66.6 208.5 75.1C209 83.6 204.3 91.7 196.6 95.4C189.9 98.8 182.6 100.1 175.4 99.3Z" fill="white"/>
<path d="M418.8 162.4C423.1 158.1 428.6 155.2 434.5 154.2C445.2 151.5 456.1 158.1 458.7 168.8C459.1 170.2 459.3 171.7 459.3 173.2C460 187.5 459.5 201.9 459.7 216.3C459.7 219.4 458.5 220.4 455.3 220.7C443.9 221.3 443.9 221.4 443.9 210.2V181.8C443.9 174.9 440.5 170.4 435.2 169.5C429 168.4 422.9 172 420.7 177.9C419.4 181.5 418.8 185.3 418.9 189V215.7C418.9 219.4 417.6 220.6 413.9 220.7C402.9 220.7 402.9 221 402.9 210.3V161.9C402.9 156.7 404.7 155 409.5 155.5C410.6 155.6 411.8 155.6 412.9 155.5C417.1 155 419.9 156 418.8 162.4Z" fill="white"/>
<path d="M605.9 52.3V92.1C605.9 96.7 604.7 98.4 599.9 98.3C589.7 98.1 589.7 98.3 589.7 88.2V14.2C589.7 6.00004 589.7 6.00004 597.9 6.00004C599 6.10004 600.2 6.10004 601.3 6.00004C604.9 5.50004 605.8 7.20004 605.7 10.6V52.1L605.9 52.3Z" fill="white"/>
<path d="M363.5 174.7V215C363.5 219.1 362.7 220.7 358.2 220.7C347.7 220.7 347.7 220.7 347.7 210.2V136.4C347.7 133.9 346.5 130.3 349.5 129.3C353.7 128.1 358.2 128.1 362.4 129.3C364.2 129.7 363.4 132.3 363.4 133.9C363.4 147.5 363.5 161.1 363.5 174.7Z" fill="white"/>
<path d="M375.4 187.6V159.8C375.4 156.6 376.2 155.7 379.5 155.7C391.3 155.7 391.3 155.3 391.3 167.1V214.8C391.3 219.5 389.8 221 385.1 220.9C375.3 220.9 375.3 220.9 375.3 211.1L375.4 187.6Z" fill="white"/>
<path d="M492.6 65.1V36.7C492.6 33.8 493.3 32.9 496.4 32.6C508.5 32.2 508.5 32.1 508.5 44.3V90.9C508.5 95.9 507.3 98 501.8 97.7C492.7 97.3 492.6 97.7 492.6 88.3V65.1Z" fill="white"/>
<path d="M379 131.4H386.4C387.8 131.4 388.9 132.5 388.9 133.9V141.3C388.9 142.7 387.8 143.8 386.4 143.8H379C377.6 143.8 376.5 142.7 376.5 141.3V133.9C376.5 132.5 377.6 131.4 379 131.4Z" fill="white"/>
<path d="M496.8 8.5H504.2C505.6 8.5 506.7 9.6 506.7 11V18.4C506.7 19.8 505.6 20.9 504.2 20.9H496.8C495.4 20.9 494.3 19.8 494.3 18.4V11C494.3 9.6 495.4 8.5 496.8 8.5Z" fill="white"/>
</g>
<defs>
<clipPath id="clip0_40_2">
<rect width="677" height="249" fill="white"/>
</clipPath>
</defs>
</svg>
