<svg width="238" height="85" viewBox="0 0 238 85" fill="none" xmlns="http://www.w3.org/2000/svg">
<path d="M97.8272 78.6804V30.3562C97.8272 21.4644 105.035 14.2564 113.927 14.2564L128.195 14.2779C137.06 14.2955 144.238 21.4877 144.238 30.3537V40.6396C144.238 49.5314 137.03 56.7393 128.139 56.7393H107.977" stroke="white" stroke-width="2.97639" stroke-miterlimit="10" stroke-linecap="round" stroke-linejoin="round"/>
<path d="M148.225 14.25H154.415C158.064 14.25 161.021 17.2081 161.021 20.8572V56.9555" stroke="white" stroke-width="2.97639" stroke-miterlimit="10" stroke-linecap="round" stroke-linejoin="round"/>
<path d="M159.694 8.65743L156.888 5.85038C156.191 5.154 156.191 4.02475 156.888 3.32837L159.693 0.523081C160.391 -0.17436 161.521 -0.17436 162.218 0.523081L165.023 3.32837C165.72 4.02475 165.72 5.154 165.023 5.85038L162.217 8.65743C161.52 9.35381 160.391 9.35381 159.694 8.65743" fill="white"/>
<path d="M172.895 14.2178H179.033C182.191 14.2178 185.219 15.4723 187.452 17.7047L201.808 32.0613C203.668 33.9212 206.683 33.9212 208.543 32.0613L222.847 17.7572C225.08 15.5249 228.108 14.2704 231.265 14.2704H236.256" stroke="white" stroke-width="2.97639" stroke-miterlimit="10" stroke-linecap="round" stroke-linejoin="round"/>
<path d="M172.895 56.6395H179.033C182.191 56.6395 185.219 55.385 187.452 53.1527L201.808 38.796C203.668 36.9362 206.683 36.9362 208.543 38.796L222.847 53.1001C225.08 55.3325 228.108 56.587 231.265 56.587H236.256" stroke="white" stroke-width="2.97639" stroke-miterlimit="10" stroke-linecap="round" stroke-linejoin="round"/>
<path d="M61.2334 65.8114C58.1529 65.8114 55.2555 64.6119 53.0771 62.4346L41.3004 50.6575C40.4734 49.8284 39.0324 49.8309 38.2058 50.6575L26.386 62.4776C24.2076 64.655 21.3102 65.8544 18.2297 65.8544H15.9089L30.8246 80.7699C35.4827 85.4279 43.0354 85.4279 47.6938 80.7699L62.6519 65.8114H61.2334Z" fill="white"/>
<path d="M18.2296 24.1545C21.3101 24.1545 24.2075 25.3539 26.3859 27.5313L38.2057 39.3532C39.0569 40.2048 40.4469 40.208 41.3002 39.3522L53.077 27.5744C55.2554 25.397 58.1528 24.1976 61.2332 24.1976H62.6517L47.694 9.23946C43.0352 4.58103 35.4826 4.58103 30.8245 9.23946L15.9094 24.1546L18.2296 24.1545Z" fill="white"/>
<path d="M75.0245 36.57L65.9852 27.5307C65.7862 27.6104 65.5707 27.6602 65.3431 27.6602H61.2333C59.1085 27.6602 57.0285 28.522 55.5271 30.0245L43.7507 41.8013C42.6486 42.9034 41.2005 43.4548 39.7537 43.4548C38.3056 43.4548 36.8585 42.9034 35.7568 41.8024L23.9358 29.9815C22.4344 28.4786 20.3544 27.6172 18.2297 27.6172H13.1761C12.9606 27.6172 12.7592 27.5664 12.569 27.4947L3.49382 36.57C-1.16461 41.2284 -1.16461 48.7807 3.49382 53.4391L12.5687 62.5139C12.7592 62.4423 12.9606 62.3915 13.1761 62.3915H18.2297C20.3544 62.3915 22.4344 61.53 23.9358 60.0276L35.7557 48.2077C37.8921 46.0731 41.6164 46.0724 43.7507 48.2087L55.5271 59.9845C57.0285 61.487 59.1085 62.3488 61.2333 62.3488H65.3431C65.5707 62.3488 65.7862 62.3985 65.9852 62.4783L75.0245 53.439C79.6825 48.7806 79.6825 41.2283 75.0245 36.5699" fill="white"/>
</svg>
